# xmcd
#
# Track frame offsets: 
#        150
#        20159
#        35865
#        53730
#        74518
#        97690
#        120432
#        146215
#        164806
#        181963
#        198149
#        223505
#        242141
#
# Disc length: 3496 seconds
#
# Revision: 0
# Processed by: cddbd v1.5.2PL0 Copyright (c) Steve Scherf et al.
# Submitted via: ExactAudioCopy v0.99pb5
#
DISCID=c10da60d
DTITLE=Eastern, The - Family
DYEAR=2009
DGENRE=Country
TTITLE0=Song of the Bird With the Broken Wing
TTITLE1=Crow River
TTITLE2=Misty and Jimmy
TTITLE3=This is the Always
TTITLE4=My Old Record
TTITLE5=We're Just Trying to Make Amends
TTITLE6=Lonesome Bound
TTITLE7=Little Girl Blue
TTITLE8=Without Any Moon
TTITLE9=5 X 5
TTITLE10=Southern Girl
TTITLE11=Dusty Sun
TTITLE12=Unnamed
EXTD=
EXTT0=
EXTT1=
EXTT2=
EXTT3=
EXTT4=
EXTT5=
EXTT6=
EXTT7=
EXTT8=
EXTT9=
EXTT10=
EXTT11=
EXTT12=
PLAYORDER=
